<?xml version="1.0" encoding="UTF-8" standalone="no"?>
<!-- Created with Inkscape (http://www.inkscape.org/) -->

<svg
   version="1.1"
   id="svg2"
   width="272"
   height="320"
   viewBox="0 0 272 320"
   xmlns="http://www.w3.org/2000/svg"
   xmlns:svg="http://www.w3.org/2000/svg">
  <defs
     id="defs6">
    <clipPath
       clipPathUnits="userSpaceOnUse"
       id="clipPath18">
      <path
         d="M 12.24,173.59 H 204 v 50.42 H 12.24 Z"
         id="path16" />
    </clipPath>
    <clipPath
       clipPathUnits="userSpaceOnUse"
       id="clipPath28">
      <path
         d="m 0,172.87 h 204 v 57.62 H 0 Z"
         id="path26" />
    </clipPath>
    <clipPath
       clipPathUnits="userSpaceOnUse"
       id="clipPath40">
      <path
         d="M 12.24,173.59 H 204 v 50.42 H 12.24 Z"
         id="path38" />
    </clipPath>
    <clipPath
       clipPathUnits="userSpaceOnUse"
       id="clipPath56">
      <path
         d="M 12.24,115.97 H 204 v 50.42 H 12.24 Z"
         id="path54" />
    </clipPath>
    <clipPath
       clipPathUnits="userSpaceOnUse"
       id="clipPath66">
      <path
         d="m 0,115.25 h 204 v 57.62 H 0 Z"
         id="path64" />
    </clipPath>
    <clipPath
       clipPathUnits="userSpaceOnUse"
       id="clipPath78">
      <path
         d="M 12.24,115.97 H 204 v 50.42 H 12.24 Z"
         id="path76" />
    </clipPath>
    <clipPath
       clipPathUnits="userSpaceOnUse"
       id="clipPath94">
      <path
         d="M 12.24,58.34 H 204 v 50.42 H 12.24 Z"
         id="path92" />
    </clipPath>
    <clipPath
       clipPathUnits="userSpaceOnUse"
       id="clipPath104">
      <path
         d="m 0,57.62 h 204 v 57.62 H 0 Z"
         id="path102" />
    </clipPath>
    <clipPath
       clipPathUnits="userSpaceOnUse"
       id="clipPath116">
      <path
         d="M 12.24,58.34 H 204 v 50.42 H 12.24 Z"
         id="path114" />
    </clipPath>
    <clipPath
       clipPathUnits="userSpaceOnUse"
       id="clipPath136">
      <path
         d="M 12.24,0.72 H 204 V 51.14 H 12.24 Z"
         id="path134" />
    </clipPath>
    <clipPath
       clipPathUnits="userSpaceOnUse"
       id="clipPath146">
      <path
         d="M 0,0 H 204 V 57.62 H 0 Z"
         id="path144" />
    </clipPath>
    <clipPath
       clipPathUnits="userSpaceOnUse"
       id="clipPath158">
      <path
         d="M 12.24,0.72 H 204 V 51.14 H 12.24 Z"
         id="path156" />
    </clipPath>
  </defs>
  <g
     id="g8"
     transform="matrix(1.3333333,0,0,-1.3333333,0,320)">
    <g
       id="g10" />
    <g
       id="g12">
      <g
         id="g14"
         clip-path="url(#clipPath18)">
        <path
           d="m 12.24,219.56 h 2.43 2.42 2.43 2.43 2.43 2.42 2.43 2.43 2.43 l 2.42,-44.22 h 2.43 2.43 2.43 2.42 2.43 2.43 2.42 2.43 2.43 l 2.43,44.22 h 2.42 2.43 2.43 2.43 2.42 2.43 2.43 2.43 2.42 l 2.43,-44.22 h 2.43 2.42 2.43 2.43 2.43 2.42 2.43 2.43 2.43 l 2.42,44.22 h 2.43 2.43 2.43 2.42 2.43 2.43 2.43 2.42 2.43 l 2.43,-44.22 h 2.42 2.43 2.43 2.43 2.42 2.43 2.43 2.43 2.42 l 2.43,44.22 h 2.43 2.43 2.42 2.43 2.43 2.42 2.43 2.43 2.43 l 2.42,-44.22 h 2.43 2.43 2.43 2.42 2.43 2.43 2.43 2.42 2.43"
           style="fill:none;stroke:#bebebe;stroke-width:2.25;stroke-linecap:round;stroke-linejoin:round;stroke-miterlimit:10;stroke-dasharray:none;stroke-opacity:1"
           id="path20" />
      </g>
    </g>
    <g
       id="g22">
      <g
         id="g24"
         clip-path="url(#clipPath28)">
        <text
           xml:space="preserve"
           transform="matrix(1,0,0,-1,47.88,137.48)"
           style="font-variant:normal;font-weight:normal;font-size:8px;font-family:'Times New Roman';-inkscape-font-specification:Times-Roman;writing-mode:lr-tb;fill:#000000;fill-opacity:1;fill-rule:nonzero;stroke:none"
           id="text32"><tspan
             x="0 4 7.552 9.776 13.328 15.328 17.992001 20.656 24.208 30.431999 33.984001 36.647999 40.647999 44.647999 48.647999 50.872002 53.535999 57.535999 61.088001 63.088001 65.087997 69.599998 72.711998 76.711998 80.711998 82.711998 86.711998 90.711998 92.935997 96.487999 100.488 104.488 107.152 109.152 111.152 115.152 117.816"
             y="0"
             id="tspan30">data.frame(u1_true, −svd.npic$u[, 1])</tspan></text>
      </g>
    </g>
    <g
       id="g34">
      <g
         id="g36"
         clip-path="url(#clipPath40)">
        <path
           d="m 12.24,219.88 2.43,-4.77 2.42,5.29 2.43,-4.18 2.43,4.04 2.43,-0.42 2.42,-0.38 2.43,1.31 2.43,1.16 2.43,-4.1 2.42,-42.87 2.43,6.91 2.43,-1.01 2.43,4.63 2.42,-3.41 2.43,-0.83 2.43,-0.63 2.42,-1.45 2.43,-3.49 2.43,5.86 2.43,37.46 2.42,-6.48 2.43,5.75 2.43,4.43 2.43,-4.72 2.42,3.83 2.43,-6.31 2.43,5.75 2.43,-0.04 2.42,0.39 2.43,-45.94 2.43,2.31 2.42,1.69 2.43,-0.41 2.43,2.64 2.43,0.91 2.42,-3.03 2.43,2.07 2.43,-2.69 2.43,-2.87 2.42,47.74 2.43,-3.03 2.43,-3.63 2.43,2.69 2.42,3.31 2.43,-7.37 2.43,2.42 2.43,3.41 2.42,-6.04 2.43,-1.99 2.43,-33.23 2.42,0.81 2.43,-1.6 2.43,-2.27 2.43,4.41 2.42,2.12 2.43,-1.87 2.43,-2.07 2.43,-2.76 2.42,7.84 2.43,30.44 2.43,4.84 2.43,1.59 2.42,-4.47 2.43,-1.83 2.43,5.95 2.42,-1.55 2.43,-1.12 2.43,1.59 2.43,-1.99 2.42,-45.03 2.43,7.57 2.43,-0.18 2.43,1.18 2.42,-5.17 2.43,3.24 2.43,-2.22 2.43,-1.15 2.42,1.81 2.43,-1.15"
           style="fill:none;stroke:#548b54;stroke-width:1.5;stroke-linecap:round;stroke-linejoin:round;stroke-miterlimit:10;stroke-dasharray:none;stroke-opacity:1"
           id="path42" />
      </g>
    </g>
    <g
       id="g44">
      <text
         xml:space="preserve"
         transform="matrix(1,0,0,-1,10.5,196.1)"
         style="font-variant:normal;font-weight:bold;font-size:8px;font-family:'Times New Roman';-inkscape-font-specification:Times-Bold;writing-mode:lr-tb;fill:#000000;fill-opacity:1;fill-rule:nonzero;stroke:none"
         id="text48"><tspan
           x="0 4.448 10.224"
           y="0"
           id="tspan46">SVD</tspan></text>
    </g>
    <g
       id="g50">
      <g
         id="g52"
         clip-path="url(#clipPath56)">
        <path
           d="m 12.24,166.39 h 2.43 2.42 2.43 2.43 2.43 2.42 2.43 2.43 2.43 l 2.42,-50.42 h 2.43 2.43 2.43 2.42 2.43 2.43 2.42 2.43 2.43 l 2.43,50.42 h 2.42 2.43 2.43 2.43 2.42 2.43 2.43 2.43 2.42 l 2.43,-50.42 h 2.43 2.42 2.43 2.43 2.43 2.42 2.43 2.43 2.43 l 2.42,50.42 h 2.43 2.43 2.43 2.42 2.43 2.43 2.43 2.42 2.43 l 2.43,-50.42 h 2.42 2.43 2.43 2.43 2.42 2.43 2.43 2.43 2.42 l 2.43,50.42 h 2.43 2.43 2.42 2.43 2.43 2.42 2.43 2.43 2.43 l 2.42,-50.42 h 2.43 2.43 2.43 2.42 2.43 2.43 2.43 2.42 2.43"
           style="fill:none;stroke:#bebebe;stroke-width:2.25;stroke-linecap:round;stroke-linejoin:round;stroke-miterlimit:10;stroke-dasharray:none;stroke-opacity:1"
           id="path58" />
      </g>
    </g>
    <g
       id="g60">
      <g
         id="g62"
         clip-path="url(#clipPath66)">
        <text
           xml:space="preserve"
           transform="matrix(1,0,0,-1,51.68,79.85)"
           style="font-variant:normal;font-weight:normal;font-size:8px;font-family:'Times New Roman';-inkscape-font-specification:Times-Roman;writing-mode:lr-tb;fill:#000000;fill-opacity:1;fill-rule:nonzero;stroke:none"
           id="text70"><tspan
             x="0 4 7.552 9.776 13.328 15.328 17.992001 20.656 24.208 30.431999 33.984001 36.647999 40.647999 44.647999 48.647999 50.872002 53.535999 57.535999 61.088001 63.088001 65.087997 68.199997 71.751999 75.304001 77.528 81.080002 85.080002 89.080002 93.080002 97.080002 101.08 104.432 110.208"
             y="0"
             id="tspan68">data.frame(u1_true, scaled_u_new)</tspan></text>
      </g>
    </g>
    <g
       id="g72">
      <g
         id="g74"
         clip-path="url(#clipPath78)">
        <path
           d="m 12.24,166.39 2.43,-2.92 2.42,0.87 2.43,-1.16 2.43,0.87 2.43,0.12 2.42,-0.74 2.43,-0.58 2.43,-2.1 2.43,-8.52 2.42,-14.74 2.43,-4.26 2.43,-2.42 2.43,-0.52 2.42,-1.45 2.43,-2.06 2.43,-1.53 2.42,-0.62 2.43,0.82 2.43,9 2.43,11.84 2.42,4.41 2.43,7.68 2.43,4.45 2.43,-0.21 2.42,1.43 2.43,-1.73 2.43,-0.49 2.43,-2.27 2.42,-9.18 2.43,-17.5 2.43,-7.14 2.42,-1.2 2.43,-0.3 2.43,0.59 2.43,0.83 2.42,0.54 2.43,1.21 2.43,1.9 2.43,5.94 2.42,16.75 2.43,5.65 2.43,1.39 2.43,2.68 2.42,1.31 2.43,-4.54 2.43,-0.3 2.43,-0.72 2.42,-5.21 2.43,-6.2 2.43,-9.87 2.42,-7.11 2.43,-3.82 2.43,-1.42 2.43,2.1 2.42,1.65 2.43,-0.79 2.43,-0.42 2.43,2.62 2.42,9.63 2.43,10.32 2.43,8.15 2.43,2.89 2.42,-0.52 2.43,-0.66 2.43,2.9 2.42,-0.02 2.43,-1.65 2.43,-2.46 2.43,-8.22 2.42,-16.76 2.43,-3.89 2.43,-1.84 2.43,-2.32 2.42,-4.55 2.43,-1.18 2.43,-1.41 2.43,-1.44 2.42,0.57 2.43,-0.01"
           style="fill:none;stroke:#4a708b;stroke-width:1.5;stroke-linecap:round;stroke-linejoin:round;stroke-miterlimit:10;stroke-dasharray:none;stroke-opacity:1"
           id="path80" />
      </g>
    </g>
    <g
       id="g82">
      <text
         xml:space="preserve"
         transform="matrix(1,0,0,-1,0.27,138.48)"
         style="font-variant:normal;font-weight:bold;font-size:8px;font-family:'Times New Roman';-inkscape-font-specification:Times-Bold;writing-mode:lr-tb;fill:#000000;fill-opacity:1;fill-rule:nonzero;stroke:none"
         id="text86"><tspan
           x="0 4.448 11.112 15.112 19.112 21.775999"
           y="0"
           id="tspan84">Smooth</tspan></text>
    </g>
    <g
       id="g88">
      <g
         id="g90"
         clip-path="url(#clipPath94)">
        <path
           d="m 12.24,103.83 h 2.43 2.42 2.43 2.43 2.43 2.42 2.43 2.43 2.43 l 2.42,-45.49 h 2.43 2.43 2.43 2.42 2.43 2.43 2.42 2.43 2.43 l 2.43,45.49 h 2.42 2.43 2.43 2.43 2.42 2.43 2.43 2.43 2.42 l 2.43,-45.49 h 2.43 2.42 2.43 2.43 2.43 2.42 2.43 2.43 2.43 l 2.42,45.49 h 2.43 2.43 2.43 2.42 2.43 2.43 2.43 2.42 2.43 l 2.43,-45.49 h 2.42 2.43 2.43 2.43 2.42 2.43 2.43 2.43 2.42 l 2.43,45.49 h 2.43 2.43 2.42 2.43 2.43 2.42 2.43 2.43 2.43 l 2.42,-45.49 h 2.43 2.43 2.43 2.42 2.43 2.43 2.43 2.42 2.43"
           style="fill:none;stroke:#bebebe;stroke-width:2.25;stroke-linecap:round;stroke-linejoin:round;stroke-miterlimit:10;stroke-dasharray:none;stroke-opacity:1"
           id="path96" />
      </g>
    </g>
    <g
       id="g98">
      <g
         id="g100"
         clip-path="url(#clipPath104)">
        <text
           xml:space="preserve"
           transform="matrix(1,0,0,-1,57.99,22.23)"
           style="font-variant:normal;font-weight:normal;font-size:8px;font-family:'Times New Roman';-inkscape-font-specification:Times-Roman;writing-mode:lr-tb;fill:#000000;fill-opacity:1;fill-rule:nonzero;stroke:none"
           id="text108"><tspan
             x="0 4 7.552 9.776 13.328 15.328 17.992001 20.656 24.208 30.431999 33.984001 36.647999 40.647999 44.647999 48.647999 50.872002 53.535999 57.535999 61.088001 63.088001 65.087997 69.599998 73.599998 77.599998 79.823997 83.375999 86.487999 89.599998 93.599998 97.599998"
             y="0"
             id="tspan106">data.frame(u1_true, −u_lasso1)</tspan></text>
      </g>
    </g>
    <g
       id="g110">
      <g
         id="g112"
         clip-path="url(#clipPath116)">
        <path
           d="m 12.24,104.48 2.43,-4.94 2.42,5.48 2.43,-4.33 2.43,4.18 2.43,-0.42 2.42,-0.4 2.43,1.35 2.43,1.2 2.43,-4.24 2.42,-44.02 h 2.43 2.43 2.43 2.42 2.43 2.43 2.42 2.43 2.43 l 2.43,45.24 2.42,-6.72 2.43,5.96 2.43,4.59 2.43,-4.9 2.42,3.98 2.43,-6.54 2.43,5.95 2.43,-0.04 2.42,0.41 2.43,-47.93 h 2.43 2.42 2.43 2.43 2.43 2.42 2.43 2.43 2.43 l 2.42,50.43 2.43,-3.13 2.43,-3.77 2.43,2.79 2.42,3.42 2.43,-7.63 2.43,2.51 2.43,3.54 2.42,-6.26 2.43,-2.06 2.43,-39.84 h 2.42 2.43 2.43 2.43 2.42 2.43 2.43 2.43 2.42 l 2.43,41.72 2.43,5.02 2.43,1.64 2.42,-4.63 2.43,-1.89 2.43,6.16 2.42,-1.61 2.43,-1.15 2.43,1.64 2.43,-2.07 2.42,-44.83 h 2.43 2.43 2.43 2.42 2.43 2.43 2.43 2.42 2.43"
           style="fill:none;stroke:#8b3a3a;stroke-width:1.5;stroke-linecap:round;stroke-linejoin:round;stroke-miterlimit:10;stroke-dasharray:none;stroke-opacity:1"
           id="path118" />
      </g>
    </g>
    <g
       id="g120">
      <text
         xml:space="preserve"
         transform="matrix(1,0,0,-1,1.97,85.89)"
         style="font-variant:normal;font-weight:bold;font-size:8px;font-family:'Times New Roman';-inkscape-font-specification:Times-Bold;writing-mode:lr-tb;fill:#000000;fill-opacity:1;fill-rule:nonzero;stroke:none"
         id="text124"><tspan
           x="0 6.224 9.632 13.632 18.08 22.528"
           y="0"
           id="tspan122">Group </tspan></text>
      <text
         xml:space="preserve"
         transform="matrix(1,0,0,-1,6.94,75.81)"
         style="font-variant:normal;font-weight:bold;font-size:8px;font-family:'Times New Roman';-inkscape-font-specification:Times-Bold;writing-mode:lr-tb;fill:#000000;fill-opacity:1;fill-rule:nonzero;stroke:none"
         id="text128"><tspan
           x="0 5.336 9.3360004 12.448 15.56"
           y="0"
           id="tspan126">Lasso</tspan></text>
    </g>
    <g
       id="g130">
      <g
         id="g132"
         clip-path="url(#clipPath136)">
        <path
           d="m 12.24,50.89 h 2.43 2.42 2.43 2.43 2.43 2.42 2.43 2.43 2.43 L 36.51,0.72 h 2.43 2.43 2.43 2.42 2.43 2.43 2.42 2.43 2.43 l 2.43,50.17 h 2.42 2.43 2.43 2.43 2.42 2.43 2.43 2.43 2.42 L 85.06,0.72 h 2.43 2.42 2.43 2.43 2.43 2.42 2.43 2.43 2.43 l 2.42,50.17 h 2.43 2.43 2.43 2.42 2.43 2.43 2.43 2.42 2.43 l 2.43,-50.17 h 2.42 2.43 2.43 2.43 2.42 2.43 2.43 2.43 2.42 l 2.43,50.17 h 2.43 2.43 2.42 2.43 2.43 2.42 2.43 2.43 2.43 l 2.42,-50.17 h 2.43 2.43 2.43 2.42 2.43 2.43 2.43 2.42 2.43"
           style="fill:none;stroke:#bebebe;stroke-width:2.25;stroke-linecap:round;stroke-linejoin:round;stroke-miterlimit:10;stroke-dasharray:none;stroke-opacity:1"
           id="path138" />
      </g>
    </g>
    <g
       id="g140">
      <g
         id="g142"
         clip-path="url(#clipPath146)">
        <text
           xml:space="preserve"
           transform="matrix(1,0,0,-1,49.63,-35.4)"
           style="font-variant:normal;font-weight:normal;font-size:8px;font-family:'Times New Roman';-inkscape-font-specification:Times-Roman;writing-mode:lr-tb;fill:#000000;fill-opacity:1;fill-rule:nonzero;stroke:none"
           id="text150"><tspan
             x="0 4 7.552 9.776 13.328 15.328 17.992001 20.656 24.208 30.431999 33.984001 36.647999 40.647999 44.647999 48.647999 50.872002 53.535999 57.535999 61.088001 63.088001 65.087997 69.599998 73.599998 77.599998 81.599998 83.823997 86.487999 90.040001 93.592003 95.816002 99.816002 102.32 104.544 108.544 112.096 114.32"
             y="0"
             id="tspan148">data.frame(u1_true, −u_direct_final)</tspan></text>
      </g>
    </g>
    <g
       id="g152">
      <g
         id="g154"
         clip-path="url(#clipPath158)">
        <path
           d="m 12.24,50.79 h 2.43 l 2.42,0.03 2.43,0.02 2.43,0.05 2.43,0.03 2.42,0.03 2.43,0.03 2.43,0.01 2.43,-0.01 2.42,-50.26 h 2.43 2.43 2.43 2.42 2.43 2.43 2.42 2.43 2.43 l 2.43,50 h 2.42 l 2.43,0.07 2.43,0.07 2.43,0.04 2.42,0.05 2.43,0.02 2.43,0.06 2.43,0.05 2.42,0.02 2.43,-50.38 h 2.43 2.42 2.43 2.43 2.43 2.42 2.43 2.43 2.43 l 2.42,50.42 2.43,-0.04 2.43,-0.07 2.43,-0.04 2.42,-0.05 2.43,-0.09 2.43,-0.07 2.43,-0.05 2.42,-0.09 2.43,-0.05 2.43,-49.87 h 2.42 2.43 2.43 2.43 2.42 2.43 2.43 2.43 2.42 l 2.43,50.07 2.43,0.04 2.43,0.02 2.42,-0.01 2.43,0.01 2.43,0.04 2.42,0.02 2.43,0.01 h 2.43 2.43 l 2.42,-50.2 h 2.43 2.43 2.43 2.42 2.43 2.43 2.43 2.42 2.43"
           style="fill:none;stroke:#cd8500;stroke-width:1.5;stroke-linecap:round;stroke-linejoin:round;stroke-miterlimit:10;stroke-dasharray:none;stroke-opacity:1"
           id="path160" />
      </g>
    </g>
    <g
       id="g162">
      <text
         xml:space="preserve"
         transform="matrix(1,0,0,-1,1.97,38.35)"
         style="font-variant:normal;font-weight:bold;font-size:8px;font-family:'Times New Roman';-inkscape-font-specification:Times-Bold;writing-mode:lr-tb;fill:#000000;fill-opacity:1;fill-rule:nonzero;stroke:none"
         id="text166"><tspan
           x="0 6.224 9.632 13.632 18.08 22.528"
           y="0"
           id="tspan164">Group </tspan></text>
      <text
         xml:space="preserve"
         transform="matrix(1,0,0,-1,4.94,28.27)"
         style="font-variant:normal;font-weight:bold;font-size:8px;font-family:'Times New Roman';-inkscape-font-specification:Times-Bold;writing-mode:lr-tb;fill:#000000;fill-opacity:1;fill-rule:nonzero;stroke:none"
         id="text170"><tspan
           x="0 5.336 9.3360004 12.448 15.56 19.559999"
           y="0"
           id="tspan168">Lasso </tspan></text>
      <text
         xml:space="preserve"
         transform="matrix(1,0,0,-1,17.83,18.19)"
         style="font-variant:normal;font-weight:bold;font-size:8px;font-family:'Times New Roman';-inkscape-font-specification:Times-Bold;writing-mode:lr-tb;fill:#000000;fill-opacity:1;fill-rule:nonzero;stroke:none"
         id="text174"><tspan
           x="0 6.664"
           y="0"
           id="tspan172">&amp; </tspan></text>
      <text
         xml:space="preserve"
         transform="matrix(1,0,0,-1,0.27,8.11)"
         style="font-variant:normal;font-weight:bold;font-size:8px;font-family:'Times New Roman';-inkscape-font-specification:Times-Bold;writing-mode:lr-tb;fill:#000000;fill-opacity:1;fill-rule:nonzero;stroke:none"
         id="text178"><tspan
           x="0 4.448 11.112 15.112 19.112 21.775999"
           y="0"
           id="tspan176">Smooth</tspan></text>
      <text
         xml:space="preserve"
         transform="matrix(1,0,0,-1,6.47,225.76)"
         style="font-variant:normal;font-weight:bold;font-size:14px;font-family:'Times New Roman';-inkscape-font-specification:Times-Bold;writing-mode:lr-tb;fill:#000000;fill-opacity:1;fill-rule:nonzero;stroke:none"
         id="text182"><tspan
           x="0 8.5539999 12.446 18.662001 24.108 28.77 32.27 40.824001 50.931999 54.431999 62.216 68.431999 75.431999 81.396004 87.612 93.057999 96.557999 101.22 109.004 113.666 117.166 127.274 134.274 145.936 153.72 160.72 166.936 170.828 176.274 183.274"
           y="0"
           id="tspan180">First PC Scores (u) Comparison</tspan></text>
    </g>
  </g>
</svg>
